ISO-10303-21;
HEADER;
/* Generated by software containing ST-Developer
 * from STEP Tools, Inc. (www.steptools.com) 
 */

FILE_DESCRIPTION(
/* description */ (''),
/* implementation_level */ '2;1');

FILE_NAME(
/* name */ 'yams_case_top.step',
/* time_stamp */ '2025-07-03T14:48:10-05:00',
/* author */ (''),
/* organization */ (''),
/* preprocessor_version */ 'ST-DEVELOPER v20.1',
/* originating_system */ 'Autodesk Translation Framework v14.10.0.0',
/* authorisation */ '');

FILE_SCHEMA (('AUTOMOTIVE_DESIGN { 1 0 10303 214 3 1 1 }'));
ENDSEC;

DATA;
#10=MECHANICAL_DESIGN_GEOMETRIC_PRESENTATION_REPRESENTATION('',(#13),#851);
#11=SHAPE_REPRESENTATION_RELATIONSHIP('SRR','None',#857,#12);
#12=ADVANCED_BREP_SHAPE_REPRESENTATION('',(#14),#850);
#13=STYLED_ITEM('',(#866),#14);
#14=MANIFOLD_SOLID_BREP('Body12',#516);
#15=FACE_BOUND('',#70,.T.);
#16=FACE_BOUND('',#73,.T.);
#17=FACE_BOUND('',#74,.T.);
#18=FACE_BOUND('',#75,.T.);
#19=FACE_BOUND('',#76,.T.);
#20=FACE_BOUND('',#77,.T.);
#21=FACE_BOUND('',#98,.T.);
#22=FACE_BOUND('',#99,.T.);
#23=FACE_BOUND('',#100,.T.);
#24=FACE_BOUND('',#101,.T.);
#25=FACE_BOUND('',#102,.T.);
#26=FACE_BOUND('',#103,.T.);
#27=PLANE('',#521);
#28=PLANE('',#522);
#29=PLANE('',#527);
#30=PLANE('',#535);
#31=PLANE('',#540);
#32=PLANE('',#543);
#33=PLANE('',#554);
#34=PLANE('',#555);
#35=PLANE('',#556);
#36=PLANE('',#557);
#37=PLANE('',#558);
#38=PLANE('',#559);
#39=PLANE('',#560);
#40=PLANE('',#561);
#41=PLANE('',#562);
#42=FACE_OUTER_BOUND('',#67,.T.);
#43=FACE_OUTER_BOUND('',#68,.T.);
#44=FACE_OUTER_BOUND('',#69,.T.);
#45=FACE_OUTER_BOUND('',#71,.T.);
#46=FACE_OUTER_BOUND('',#72,.T.);
#47=FACE_OUTER_BOUND('',#78,.T.);
#48=FACE_OUTER_BOUND('',#79,.T.);
#49=FACE_OUTER_BOUND('',#80,.T.);
#50=FACE_OUTER_BOUND('',#81,.T.);
#51=FACE_OUTER_BOUND('',#82,.T.);
#52=FACE_OUTER_BOUND('',#83,.T.);
#53=FACE_OUTER_BOUND('',#84,.T.);
#54=FACE_OUTER_BOUND('',#85,.T.);
#55=FACE_OUTER_BOUND('',#86,.T.);
#56=FACE_OUTER_BOUND('',#87,.T.);
#57=FACE_OUTER_BOUND('',#88,.T.);
#58=FACE_OUTER_BOUND('',#89,.T.);
#59=FACE_OUTER_BOUND('',#90,.T.);
#60=FACE_OUTER_BOUND('',#91,.T.);
#61=FACE_OUTER_BOUND('',#92,.T.);
#62=FACE_OUTER_BOUND('',#93,.T.);
#63=FACE_OUTER_BOUND('',#94,.T.);
#64=FACE_OUTER_BOUND('',#95,.T.);
#65=FACE_OUTER_BOUND('',#96,.T.);
#66=FACE_OUTER_BOUND('',#97,.T.);
#67=EDGE_LOOP('',(#341,#342,#343,#344));
#68=EDGE_LOOP('',(#345,#346,#347,#348));
#69=EDGE_LOOP('',(#349,#350,#351,#352,#353,#354,#355));
#70=EDGE_LOOP('',(#356));
#71=EDGE_LOOP('',(#357,#358,#359,#360));
#72=EDGE_LOOP('',(#361,#362,#363,#364,#365,#366,#367,#368));
#73=EDGE_LOOP('',(#369,#370,#371,#372));
#74=EDGE_LOOP('',(#373));
#75=EDGE_LOOP('',(#374));
#76=EDGE_LOOP('',(#375));
#77=EDGE_LOOP('',(#376));
#78=EDGE_LOOP('',(#377,#378,#379,#380));
#79=EDGE_LOOP('',(#381,#382,#383,#384));
#80=EDGE_LOOP('',(#385,#386,#387,#388));
#81=EDGE_LOOP('',(#389,#390,#391,#392));
#82=EDGE_LOOP('',(#393,#394,#395,#396));
#83=EDGE_LOOP('',(#397,#398,#399,#400));
#84=EDGE_LOOP('',(#401,#402,#403,#404));
#85=EDGE_LOOP('',(#405,#406,#407,#408));
#86=EDGE_LOOP('',(#409,#410,#411,#412));
#87=EDGE_LOOP('',(#413,#414,#415,#416));
#88=EDGE_LOOP('',(#417,#418,#419,#420));
#89=EDGE_LOOP('',(#421,#422,#423,#424,#425));
#90=EDGE_LOOP('',(#426,#427,#428,#429,#430,#431));
#91=EDGE_LOOP('',(#432,#433,#434,#435));
#92=EDGE_LOOP('',(#436,#437,#438,#439));
#93=EDGE_LOOP('',(#440,#441,#442,#443,#444,#445,#446,#447));
#94=EDGE_LOOP('',(#448,#449,#450,#451));
#95=EDGE_LOOP('',(#452,#453,#454,#455));
#96=EDGE_LOOP('',(#456,#457,#458,#459));
#97=EDGE_LOOP('',(#460,#461,#462,#463,#464,#465,#466,#467));
#98=EDGE_LOOP('',(#468,#469,#470,#471,#472,#473,#474,#475));
#99=EDGE_LOOP('',(#476));
#100=EDGE_LOOP('',(#477));
#101=EDGE_LOOP('',(#478));
#102=EDGE_LOOP('',(#479));
#103=EDGE_LOOP('',(#480));
#104=LINE('',#711,#154);
#105=LINE('',#714,#155);
#106=LINE('',#717,#156);
#107=LINE('',#719,#157);
#108=LINE('',#720,#158);
#109=LINE('',#723,#159);
#110=LINE('',#725,#160);
#111=LINE('',#727,#161);
#112=LINE('',#729,#162);
#113=LINE('',#730,#163);
#114=LINE('',#738,#164);
#115=LINE('',#741,#165);
#116=LINE('',#744,#166);
#117=LINE('',#748,#167);
#118=LINE('',#752,#168);
#119=LINE('',#755,#169);
#120=LINE('',#758,#170);
#121=LINE('',#760,#171);
#122=LINE('',#762,#172);
#123=LINE('',#763,#173);
#124=LINE('',#774,#174);
#125=LINE('',#775,#175);
#126=LINE('',#779,#176);
#127=LINE('',#782,#177);
#128=LINE('',#785,#178);
#129=LINE('',#788,#179);
#130=LINE('',#789,#180);
#131=LINE('',#793,#181);
#132=LINE('',#795,#182);
#133=LINE('',#796,#183);
#134=LINE('',#799,#184);
#135=LINE('',#803,#185);
#136=LINE('',#807,#186);
#137=LINE('',#811,#187);
#138=LINE('',#815,#188);
#139=LINE('',#820,#189);
#140=LINE('',#822,#190);
#141=LINE('',#823,#191);
#142=LINE('',#824,#192);
#143=LINE('',#827,#193);
#144=LINE('',#828,#194);
#145=LINE('',#830,#195);
#146=LINE('',#833,#196);
#147=LINE('',#834,#197);
#148=LINE('',#837,#198);
#149=LINE('',#839,#199);
#150=LINE('',#840,#200);
#151=LINE('',#842,#201);
#152=LINE('',#844,#202);
#153=LINE('',#846,#203);
#154=VECTOR('',#569,10.);
#155=VECTOR('',#572,10.);
#156=VECTOR('',#575,10.);
#157=VECTOR('',#576,10.);
#158=VECTOR('',#577,10.);
#159=VECTOR('',#580,10.);
#160=VECTOR('',#581,10.);
#161=VECTOR('',#582,10.);
#162=VECTOR('',#583,10.);
#163=VECTOR('',#584,10.);
#164=VECTOR('',#591,10.);
#165=VECTOR('',#594,10.);
#166=VECTOR('',#597,10.);
#167=VECTOR('',#600,10.);
#168=VECTOR('',#603,10.);
#169=VECTOR('',#606,10.);
#170=VECTOR('',#607,10.);
#171=VECTOR('',#608,10.);
#172=VECTOR('',#609,10.);
#173=VECTOR('',#610,10.);
#174=VECTOR('',#621,10.);
#175=VECTOR('',#622,10.);
#176=VECTOR('',#627,10.);
#177=VECTOR('',#630,10.);
#178=VECTOR('',#633,10.);
#179=VECTOR('',#636,10.);
#180=VECTOR('',#637,10.);
#181=VECTOR('',#642,10.);
#182=VECTOR('',#645,10.);
#183=VECTOR('',#646,10.);
#184=VECTOR('',#649,1.45);
#185=VECTOR('',#654,1.45);
#186=VECTOR('',#659,1.45);
#187=VECTOR('',#664,4.);
#188=VECTOR('',#669,1.45);
#189=VECTOR('',#674,10.);
#190=VECTOR('',#675,10.);
#191=VECTOR('',#676,10.);
#192=VECTOR('',#677,10.);
#193=VECTOR('',#680,10.);
#194=VECTOR('',#681,10.);
#195=VECTOR('',#684,10.);
#196=VECTOR('',#687,10.);
#197=VECTOR('',#688,10.);
#198=VECTOR('',#691,10.);
#199=VECTOR('',#692,10.);
#200=VECTOR('',#693,10.);
#201=VECTOR('',#696,10.);
#202=VECTOR('',#699,10.);
#203=VECTOR('',#702,10.);
#204=CIRCLE('',#519,5.);
#205=CIRCLE('',#520,5.);
#206=CIRCLE('',#523,4.);
#207=CIRCLE('',#525,5.);
#208=CIRCLE('',#526,5.);
#209=CIRCLE('',#528,5.);
#210=CIRCLE('',#529,5.);
#211=CIRCLE('',#530,5.);
#212=CIRCLE('',#531,1.45);
#213=CIRCLE('',#532,1.45);
#214=CIRCLE('',#533,1.45);
#215=CIRCLE('',#534,1.45);
#216=CIRCLE('',#537,5.);
#217=CIRCLE('',#539,5.);
#218=CIRCLE('',#542,5.);
#219=CIRCLE('',#545,1.45);
#220=CIRCLE('',#547,1.45);
#221=CIRCLE('',#549,1.45);
#222=CIRCLE('',#551,4.);
#223=CIRCLE('',#553,1.45);
#224=VERTEX_POINT('',#707);
#225=VERTEX_POINT('',#708);
#226=VERTEX_POINT('',#710);
#227=VERTEX_POINT('',#712);
#228=VERTEX_POINT('',#716);
#229=VERTEX_POINT('',#718);
#230=VERTEX_POINT('',#722);
#231=VERTEX_POINT('',#724);
#232=VERTEX_POINT('',#726);
#233=VERTEX_POINT('',#728);
#234=VERTEX_POINT('',#731);
#235=VERTEX_POINT('',#734);
#236=VERTEX_POINT('',#735);
#237=VERTEX_POINT('',#737);
#238=VERTEX_POINT('',#739);
#239=VERTEX_POINT('',#743);
#240=VERTEX_POINT('',#745);
#241=VERTEX_POINT('',#747);
#242=VERTEX_POINT('',#749);
#243=VERTEX_POINT('',#751);
#244=VERTEX_POINT('',#753);
#245=VERTEX_POINT('',#756);
#246=VERTEX_POINT('',#757);
#247=VERTEX_POINT('',#759);
#248=VERTEX_POINT('',#761);
#249=VERTEX_POINT('',#764);
#250=VERTEX_POINT('',#766);
#251=VERTEX_POINT('',#768);
#252=VERTEX_POINT('',#770);
#253=VERTEX_POINT('',#773);
#254=VERTEX_POINT('',#777);
#255=VERTEX_POINT('',#781);
#256=VERTEX_POINT('',#783);
#257=VERTEX_POINT('',#787);
#258=VERTEX_POINT('',#791);
#259=VERTEX_POINT('',#798);
#260=VERTEX_POINT('',#802);
#261=VERTEX_POINT('',#806);
#262=VERTEX_POINT('',#810);
#263=VERTEX_POINT('',#814);
#264=VERTEX_POINT('',#818);
#265=VERTEX_POINT('',#819);
#266=VERTEX_POINT('',#821);
#267=VERTEX_POINT('',#826);
#268=VERTEX_POINT('',#832);
#269=VERTEX_POINT('',#836);
#270=VERTEX_POINT('',#838);
#271=EDGE_CURVE('',#224,#225,#204,.T.);
#272=EDGE_CURVE('',#225,#226,#104,.T.);
#273=EDGE_CURVE('',#226,#227,#205,.T.);
#274=EDGE_CURVE('',#227,#224,#105,.T.);
#275=EDGE_CURVE('',#228,#225,#106,.T.);
#276=EDGE_CURVE('',#229,#228,#107,.T.);
#277=EDGE_CURVE('',#229,#226,#108,.T.);
#278=EDGE_CURVE('',#224,#230,#109,.T.);
#279=EDGE_CURVE('',#230,#231,#110,.T.);
#280=EDGE_CURVE('',#231,#232,#111,.T.);
#281=EDGE_CURVE('',#232,#233,#112,.T.);
#282=EDGE_CURVE('',#233,#228,#113,.T.);
#283=EDGE_CURVE('',#234,#234,#206,.T.);
#284=EDGE_CURVE('',#235,#236,#207,.T.);
#285=EDGE_CURVE('',#236,#237,#114,.T.);
#286=EDGE_CURVE('',#237,#238,#208,.T.);
#287=EDGE_CURVE('',#238,#235,#115,.T.);
#288=EDGE_CURVE('',#235,#239,#116,.T.);
#289=EDGE_CURVE('',#240,#239,#209,.T.);
#290=EDGE_CURVE('',#240,#241,#117,.T.);
#291=EDGE_CURVE('',#242,#241,#210,.T.);
#292=EDGE_CURVE('',#242,#243,#118,.T.);
#293=EDGE_CURVE('',#244,#243,#211,.T.);
#294=EDGE_CURVE('',#244,#236,#119,.T.);
#295=EDGE_CURVE('',#245,#246,#120,.T.);
#296=EDGE_CURVE('',#246,#247,#121,.T.);
#297=EDGE_CURVE('',#247,#248,#122,.T.);
#298=EDGE_CURVE('',#248,#245,#123,.T.);
#299=EDGE_CURVE('',#249,#249,#212,.T.);
#300=EDGE_CURVE('',#250,#250,#213,.T.);
#301=EDGE_CURVE('',#251,#251,#214,.T.);
#302=EDGE_CURVE('',#252,#252,#215,.T.);
#303=EDGE_CURVE('',#238,#253,#124,.T.);
#304=EDGE_CURVE('',#239,#253,#125,.T.);
#305=EDGE_CURVE('',#253,#254,#216,.T.);
#306=EDGE_CURVE('',#254,#240,#126,.T.);
#307=EDGE_CURVE('',#241,#255,#127,.T.);
#308=EDGE_CURVE('',#255,#256,#217,.T.);
#309=EDGE_CURVE('',#256,#242,#128,.T.);
#310=EDGE_CURVE('',#256,#257,#129,.T.);
#311=EDGE_CURVE('',#243,#257,#130,.T.);
#312=EDGE_CURVE('',#257,#258,#218,.T.);
#313=EDGE_CURVE('',#258,#244,#131,.T.);
#314=EDGE_CURVE('',#231,#247,#132,.T.);
#315=EDGE_CURVE('',#232,#246,#133,.T.);
#316=EDGE_CURVE('',#250,#259,#134,.T.);
#317=EDGE_CURVE('',#259,#259,#219,.T.);
#318=EDGE_CURVE('',#249,#260,#135,.T.);
#319=EDGE_CURVE('',#260,#260,#220,.T.);
#320=EDGE_CURVE('',#251,#261,#136,.T.);
#321=EDGE_CURVE('',#261,#261,#221,.T.);
#322=EDGE_CURVE('',#234,#262,#137,.T.);
#323=EDGE_CURVE('',#262,#262,#222,.T.);
#324=EDGE_CURVE('',#252,#263,#138,.T.);
#325=EDGE_CURVE('',#263,#263,#223,.T.);
#326=EDGE_CURVE('',#264,#265,#139,.T.);
#327=EDGE_CURVE('',#265,#266,#140,.T.);
#328=EDGE_CURVE('',#266,#245,#141,.T.);
#329=EDGE_CURVE('',#264,#248,#142,.T.);
#330=EDGE_CURVE('',#267,#264,#143,.T.);
#331=EDGE_CURVE('',#267,#230,#144,.T.);
#332=EDGE_CURVE('',#227,#267,#145,.T.);
#333=EDGE_CURVE('',#268,#229,#146,.T.);
#334=EDGE_CURVE('',#268,#233,#147,.T.);
#335=EDGE_CURVE('',#269,#268,#148,.T.);
#336=EDGE_CURVE('',#266,#270,#149,.T.);
#337=EDGE_CURVE('',#269,#270,#150,.T.);
#338=EDGE_CURVE('',#265,#269,#151,.T.);
#339=EDGE_CURVE('',#258,#237,#152,.T.);
#340=EDGE_CURVE('',#254,#255,#153,.T.);
#341=ORIENTED_EDGE('',*,*,#271,.T.);
#342=ORIENTED_EDGE('',*,*,#272,.T.);
#343=ORIENTED_EDGE('',*,*,#273,.T.);
#344=ORIENTED_EDGE('',*,*,#274,.T.);
#345=ORIENTED_EDGE('',*,*,#272,.F.);
#346=ORIENTED_EDGE('',*,*,#275,.F.);
#347=ORIENTED_EDGE('',*,*,#276,.F.);
#348=ORIENTED_EDGE('',*,*,#277,.T.);
#349=ORIENTED_EDGE('',*,*,#271,.F.);
#350=ORIENTED_EDGE('',*,*,#278,.T.);
#351=ORIENTED_EDGE('',*,*,#279,.T.);
#352=ORIENTED_EDGE('',*,*,#280,.T.);
#353=ORIENTED_EDGE('',*,*,#281,.T.);
#354=ORIENTED_EDGE('',*,*,#282,.T.);
#355=ORIENTED_EDGE('',*,*,#275,.T.);
#356=ORIENTED_EDGE('',*,*,#283,.T.);
#357=ORIENTED_EDGE('',*,*,#284,.T.);
#358=ORIENTED_EDGE('',*,*,#285,.T.);
#359=ORIENTED_EDGE('',*,*,#286,.T.);
#360=ORIENTED_EDGE('',*,*,#287,.T.);
#361=ORIENTED_EDGE('',*,*,#284,.F.);
#362=ORIENTED_EDGE('',*,*,#288,.T.);
#363=ORIENTED_EDGE('',*,*,#289,.F.);
#364=ORIENTED_EDGE('',*,*,#290,.T.);
#365=ORIENTED_EDGE('',*,*,#291,.F.);
#366=ORIENTED_EDGE('',*,*,#292,.T.);
#367=ORIENTED_EDGE('',*,*,#293,.F.);
#368=ORIENTED_EDGE('',*,*,#294,.T.);
#369=ORIENTED_EDGE('',*,*,#295,.T.);
#370=ORIENTED_EDGE('',*,*,#296,.T.);
#371=ORIENTED_EDGE('',*,*,#297,.T.);
#372=ORIENTED_EDGE('',*,*,#298,.T.);
#373=ORIENTED_EDGE('',*,*,#299,.T.);
#374=ORIENTED_EDGE('',*,*,#300,.T.);
#375=ORIENTED_EDGE('',*,*,#301,.T.);
#376=ORIENTED_EDGE('',*,*,#302,.T.);
#377=ORIENTED_EDGE('',*,*,#287,.F.);
#378=ORIENTED_EDGE('',*,*,#303,.T.);
#379=ORIENTED_EDGE('',*,*,#304,.F.);
#380=ORIENTED_EDGE('',*,*,#288,.F.);
#381=ORIENTED_EDGE('',*,*,#289,.T.);
#382=ORIENTED_EDGE('',*,*,#304,.T.);
#383=ORIENTED_EDGE('',*,*,#305,.T.);
#384=ORIENTED_EDGE('',*,*,#306,.T.);
#385=ORIENTED_EDGE('',*,*,#291,.T.);
#386=ORIENTED_EDGE('',*,*,#307,.T.);
#387=ORIENTED_EDGE('',*,*,#308,.T.);
#388=ORIENTED_EDGE('',*,*,#309,.T.);
#389=ORIENTED_EDGE('',*,*,#309,.F.);
#390=ORIENTED_EDGE('',*,*,#310,.T.);
#391=ORIENTED_EDGE('',*,*,#311,.F.);
#392=ORIENTED_EDGE('',*,*,#292,.F.);
#393=ORIENTED_EDGE('',*,*,#293,.T.);
#394=ORIENTED_EDGE('',*,*,#311,.T.);
#395=ORIENTED_EDGE('',*,*,#312,.T.);
#396=ORIENTED_EDGE('',*,*,#313,.T.);
#397=ORIENTED_EDGE('',*,*,#280,.F.);
#398=ORIENTED_EDGE('',*,*,#314,.T.);
#399=ORIENTED_EDGE('',*,*,#296,.F.);
#400=ORIENTED_EDGE('',*,*,#315,.F.);
#401=ORIENTED_EDGE('',*,*,#300,.F.);
#402=ORIENTED_EDGE('',*,*,#316,.T.);
#403=ORIENTED_EDGE('',*,*,#317,.T.);
#404=ORIENTED_EDGE('',*,*,#316,.F.);
#405=ORIENTED_EDGE('',*,*,#299,.F.);
#406=ORIENTED_EDGE('',*,*,#318,.T.);
#407=ORIENTED_EDGE('',*,*,#319,.T.);
#408=ORIENTED_EDGE('',*,*,#318,.F.);
#409=ORIENTED_EDGE('',*,*,#301,.F.);
#410=ORIENTED_EDGE('',*,*,#320,.T.);
#411=ORIENTED_EDGE('',*,*,#321,.T.);
#412=ORIENTED_EDGE('',*,*,#320,.F.);
#413=ORIENTED_EDGE('',*,*,#283,.F.);
#414=ORIENTED_EDGE('',*,*,#322,.T.);
#415=ORIENTED_EDGE('',*,*,#323,.T.);
#416=ORIENTED_EDGE('',*,*,#322,.F.);
#417=ORIENTED_EDGE('',*,*,#302,.F.);
#418=ORIENTED_EDGE('',*,*,#324,.T.);
#419=ORIENTED_EDGE('',*,*,#325,.T.);
#420=ORIENTED_EDGE('',*,*,#324,.F.);
#421=ORIENTED_EDGE('',*,*,#326,.T.);
#422=ORIENTED_EDGE('',*,*,#327,.T.);
#423=ORIENTED_EDGE('',*,*,#328,.T.);
#424=ORIENTED_EDGE('',*,*,#298,.F.);
#425=ORIENTED_EDGE('',*,*,#329,.F.);
#426=ORIENTED_EDGE('',*,*,#330,.T.);
#427=ORIENTED_EDGE('',*,*,#329,.T.);
#428=ORIENTED_EDGE('',*,*,#297,.F.);
#429=ORIENTED_EDGE('',*,*,#314,.F.);
#430=ORIENTED_EDGE('',*,*,#279,.F.);
#431=ORIENTED_EDGE('',*,*,#331,.F.);
#432=ORIENTED_EDGE('',*,*,#274,.F.);
#433=ORIENTED_EDGE('',*,*,#332,.T.);
#434=ORIENTED_EDGE('',*,*,#331,.T.);
#435=ORIENTED_EDGE('',*,*,#278,.F.);
#436=ORIENTED_EDGE('',*,*,#333,.T.);
#437=ORIENTED_EDGE('',*,*,#276,.T.);
#438=ORIENTED_EDGE('',*,*,#282,.F.);
#439=ORIENTED_EDGE('',*,*,#334,.F.);
#440=ORIENTED_EDGE('',*,*,#335,.T.);
#441=ORIENTED_EDGE('',*,*,#334,.T.);
#442=ORIENTED_EDGE('',*,*,#281,.F.);
#443=ORIENTED_EDGE('',*,*,#315,.T.);
#444=ORIENTED_EDGE('',*,*,#295,.F.);
#445=ORIENTED_EDGE('',*,*,#328,.F.);
#446=ORIENTED_EDGE('',*,*,#336,.T.);
#447=ORIENTED_EDGE('',*,*,#337,.F.);
#448=ORIENTED_EDGE('',*,*,#338,.T.);
#449=ORIENTED_EDGE('',*,*,#337,.T.);
#450=ORIENTED_EDGE('',*,*,#336,.F.);
#451=ORIENTED_EDGE('',*,*,#327,.F.);
#452=ORIENTED_EDGE('',*,*,#285,.F.);
#453=ORIENTED_EDGE('',*,*,#294,.F.);
#454=ORIENTED_EDGE('',*,*,#313,.F.);
#455=ORIENTED_EDGE('',*,*,#339,.T.);
#456=ORIENTED_EDGE('',*,*,#306,.F.);
#457=ORIENTED_EDGE('',*,*,#340,.T.);
#458=ORIENTED_EDGE('',*,*,#307,.F.);
#459=ORIENTED_EDGE('',*,*,#290,.F.);
#460=ORIENTED_EDGE('',*,*,#286,.F.);
#461=ORIENTED_EDGE('',*,*,#339,.F.);
#462=ORIENTED_EDGE('',*,*,#312,.F.);
#463=ORIENTED_EDGE('',*,*,#310,.F.);
#464=ORIENTED_EDGE('',*,*,#308,.F.);
#465=ORIENTED_EDGE('',*,*,#340,.F.);
#466=ORIENTED_EDGE('',*,*,#305,.F.);
#467=ORIENTED_EDGE('',*,*,#303,.F.);
#468=ORIENTED_EDGE('',*,*,#273,.F.);
#469=ORIENTED_EDGE('',*,*,#277,.F.);
#470=ORIENTED_EDGE('',*,*,#333,.F.);
#471=ORIENTED_EDGE('',*,*,#335,.F.);
#472=ORIENTED_EDGE('',*,*,#338,.F.);
#473=ORIENTED_EDGE('',*,*,#326,.F.);
#474=ORIENTED_EDGE('',*,*,#330,.F.);
#475=ORIENTED_EDGE('',*,*,#332,.F.);
#476=ORIENTED_EDGE('',*,*,#325,.F.);
#477=ORIENTED_EDGE('',*,*,#321,.F.);
#478=ORIENTED_EDGE('',*,*,#319,.F.);
#479=ORIENTED_EDGE('',*,*,#317,.F.);
#480=ORIENTED_EDGE('',*,*,#323,.F.);
#481=CYLINDRICAL_SURFACE('',#518,5.);
#482=CYLINDRICAL_SURFACE('',#524,5.);
#483=CYLINDRICAL_SURFACE('',#536,5.);
#484=CYLINDRICAL_SURFACE('',#538,5.);
#485=CYLINDRICAL_SURFACE('',#541,5.);
#486=CYLINDRICAL_SURFACE('',#544,1.45);
#487=CYLINDRICAL_SURFACE('',#546,1.45);
#488=CYLINDRICAL_SURFACE('',#548,1.45);
#489=CYLINDRICAL_SURFACE('',#550,4.);
#490=CYLINDRICAL_SURFACE('',#552,1.45);
#491=ADVANCED_FACE('',(#42),#481,.T.);
#492=ADVANCED_FACE('',(#43),#27,.T.);
#493=ADVANCED_FACE('',(#44,#15),#28,.T.);
#494=ADVANCED_FACE('',(#45),#482,.T.);
#495=ADVANCED_FACE('',(#46,#16,#17,#18,#19,#20),#29,.T.);
#496=ADVANCED_FACE('',(#47),#30,.T.);
#497=ADVANCED_FACE('',(#48),#483,.T.);
#498=ADVANCED_FACE('',(#49),#484,.T.);
#499=ADVANCED_FACE('',(#50),#31,.T.);
#500=ADVANCED_FACE('',(#51),#485,.T.);
#501=ADVANCED_FACE('',(#52),#32,.T.);
#502=ADVANCED_FACE('',(#53),#486,.F.);
#503=ADVANCED_FACE('',(#54),#487,.F.);
#504=ADVANCED_FACE('',(#55),#488,.F.);
#505=ADVANCED_FACE('',(#56),#489,.F.);
#506=ADVANCED_FACE('',(#57),#490,.F.);
#507=ADVANCED_FACE('',(#58),#33,.T.);
#508=ADVANCED_FACE('',(#59),#34,.T.);
#509=ADVANCED_FACE('',(#60),#35,.T.);
#510=ADVANCED_FACE('',(#61),#36,.T.);
#511=ADVANCED_FACE('',(#62),#37,.T.);
#512=ADVANCED_FACE('',(#63),#38,.T.);
#513=ADVANCED_FACE('',(#64),#39,.T.);
#514=ADVANCED_FACE('',(#65),#40,.T.);
#515=ADVANCED_FACE('',(#66,#21,#22,#23,#24,#25,#26),#41,.F.);
#516=CLOSED_SHELL('',(#491,#492,#493,#494,#495,#496,#497,#498,#499,#500,
#501,#502,#503,#504,#505,#506,#507,#508,#509,#510,#511,#512,#513,#514,#515));
#517=AXIS2_PLACEMENT_3D('',#705,#563,#564);
#518=AXIS2_PLACEMENT_3D('',#706,#565,#566);
#519=AXIS2_PLACEMENT_3D('',#709,#567,#568);
#520=AXIS2_PLACEMENT_3D('',#713,#570,#571);
#521=AXIS2_PLACEMENT_3D('',#715,#573,#574);
#522=AXIS2_PLACEMENT_3D('',#721,#578,#579);
#523=AXIS2_PLACEMENT_3D('',#732,#585,#586);
#524=AXIS2_PLACEMENT_3D('',#733,#587,#588);
#525=AXIS2_PLACEMENT_3D('',#736,#589,#590);
#526=AXIS2_PLACEMENT_3D('',#740,#592,#593);
#527=AXIS2_PLACEMENT_3D('',#742,#595,#596);
#528=AXIS2_PLACEMENT_3D('',#746,#598,#599);
#529=AXIS2_PLACEMENT_3D('',#750,#601,#602);
#530=AXIS2_PLACEMENT_3D('',#754,#604,#605);
#531=AXIS2_PLACEMENT_3D('',#765,#611,#612);
#532=AXIS2_PLACEMENT_3D('',#767,#613,#614);
#533=AXIS2_PLACEMENT_3D('',#769,#615,#616);
#534=AXIS2_PLACEMENT_3D('',#771,#617,#618);
#535=AXIS2_PLACEMENT_3D('',#772,#619,#620);
#536=AXIS2_PLACEMENT_3D('',#776,#623,#624);
#537=AXIS2_PLACEMENT_3D('',#778,#625,#626);
#538=AXIS2_PLACEMENT_3D('',#780,#628,#629);
#539=AXIS2_PLACEMENT_3D('',#784,#631,#632);
#540=AXIS2_PLACEMENT_3D('',#786,#634,#635);
#541=AXIS2_PLACEMENT_3D('',#790,#638,#639);
#542=AXIS2_PLACEMENT_3D('',#792,#640,#641);
#543=AXIS2_PLACEMENT_3D('',#794,#643,#644);
#544=AXIS2_PLACEMENT_3D('',#797,#647,#648);
#545=AXIS2_PLACEMENT_3D('',#800,#650,#651);
#546=AXIS2_PLACEMENT_3D('',#801,#652,#653);
#547=AXIS2_PLACEMENT_3D('',#804,#655,#656);
#548=AXIS2_PLACEMENT_3D('',#805,#657,#658);
#549=AXIS2_PLACEMENT_3D('',#808,#660,#661);
#550=AXIS2_PLACEMENT_3D('',#809,#662,#663);
#551=AXIS2_PLACEMENT_3D('',#812,#665,#666);
#552=AXIS2_PLACEMENT_3D('',#813,#667,#668);
#553=AXIS2_PLACEMENT_3D('',#816,#670,#671);
#554=AXIS2_PLACEMENT_3D('',#817,#672,#673);
#555=AXIS2_PLACEMENT_3D('',#825,#678,#679);
#556=AXIS2_PLACEMENT_3D('',#829,#682,#683);
#557=AXIS2_PLACEMENT_3D('',#831,#685,#686);
#558=AXIS2_PLACEMENT_3D('',#835,#689,#690);
#559=AXIS2_PLACEMENT_3D('',#841,#694,#695);
#560=AXIS2_PLACEMENT_3D('',#843,#697,#698);
#561=AXIS2_PLACEMENT_3D('',#845,#700,#701);
#562=AXIS2_PLACEMENT_3D('',#847,#703,#704);
#563=DIRECTION('axis',(0.,0.,1.));
#564=DIRECTION('refdir',(1.,0.,0.));
#565=DIRECTION('center_axis',(0.,0.,1.));
#566=DIRECTION('ref_axis',(-0.707106781186547,0.707106781186547,0.));
#567=DIRECTION('center_axis',(0.,0.,-1.));
#568=DIRECTION('ref_axis',(-0.707106781186547,0.707106781186547,0.));
#569=DIRECTION('',(0.,0.,-1.));
#570=DIRECTION('center_axis',(0.,0.,1.));
#571=DIRECTION('ref_axis',(-0.707106781186547,0.707106781186547,0.));
#572=DIRECTION('',(0.,0.,1.));
#573=DIRECTION('center_axis',(0.,1.,0.));
#574=DIRECTION('ref_axis',(-1.,0.,0.));
#575=DIRECTION('',(-1.,0.,0.));
#576=DIRECTION('',(0.,0.,1.));
#577=DIRECTION('',(-1.,0.,0.));
#578=DIRECTION('center_axis',(0.,0.,1.));
#579=DIRECTION('ref_axis',(-1.,0.,0.));
#580=DIRECTION('',(0.,-1.,0.));
#581=DIRECTION('',(1.,0.,0.));
#582=DIRECTION('',(0.,1.,0.));
#583=DIRECTION('',(-1.,0.,0.));
#584=DIRECTION('',(0.,-1.,0.));
#585=DIRECTION('center_axis',(0.,0.,-1.));
#586=DIRECTION('ref_axis',(-1.,0.,0.));
#587=DIRECTION('center_axis',(0.,0.,1.));
#588=DIRECTION('ref_axis',(-0.707106781186547,0.707106781186547,0.));
#589=DIRECTION('center_axis',(0.,0.,-1.));
#590=DIRECTION('ref_axis',(-0.707106781186547,0.707106781186547,0.));
#591=DIRECTION('',(0.,0.,-1.));
#592=DIRECTION('center_axis',(0.,0.,1.));
#593=DIRECTION('ref_axis',(-0.707106781186547,0.707106781186547,0.));
#594=DIRECTION('',(0.,0.,1.));
#595=DIRECTION('center_axis',(0.,0.,1.));
#596=DIRECTION('ref_axis',(-1.,0.,0.));
#597=DIRECTION('',(0.,-1.,0.));
#598=DIRECTION('center_axis',(0.,0.,-1.));
#599=DIRECTION('ref_axis',(-0.707106781186547,-0.707106781186547,0.));
#600=DIRECTION('',(1.,0.,0.));
#601=DIRECTION('center_axis',(0.,0.,-1.));
#602=DIRECTION('ref_axis',(0.707106781186547,-0.707106781186547,0.));
#603=DIRECTION('',(0.,1.,0.));
#604=DIRECTION('center_axis',(0.,0.,-1.));
#605=DIRECTION('ref_axis',(0.707106781186547,0.707106781186547,0.));
#606=DIRECTION('',(-1.,0.,0.));
#607=DIRECTION('',(1.,0.,0.));
#608=DIRECTION('',(0.,-1.,0.));
#609=DIRECTION('',(-1.,0.,0.));
#610=DIRECTION('',(0.,1.,0.));
#611=DIRECTION('center_axis',(0.,0.,-1.));
#612=DIRECTION('ref_axis',(-1.,0.,0.));
#613=DIRECTION('center_axis',(0.,0.,-1.));
#614=DIRECTION('ref_axis',(-1.,0.,0.));
#615=DIRECTION('center_axis',(0.,0.,-1.));
#616=DIRECTION('ref_axis',(-1.,0.,0.));
#617=DIRECTION('center_axis',(0.,0.,-1.));
#618=DIRECTION('ref_axis',(-1.,0.,0.));
#619=DIRECTION('center_axis',(-1.,0.,0.));
#620=DIRECTION('ref_axis',(0.,-1.,0.));
#621=DIRECTION('',(0.,-1.,0.));
#622=DIRECTION('',(0.,0.,-1.));
#623=DIRECTION('center_axis',(0.,0.,1.));
#624=DIRECTION('ref_axis',(-0.707106781186547,-0.707106781186547,0.));
#625=DIRECTION('center_axis',(0.,0.,1.));
#626=DIRECTION('ref_axis',(-0.707106781186547,-0.707106781186547,0.));
#627=DIRECTION('',(0.,0.,1.));
#628=DIRECTION('center_axis',(0.,0.,1.));
#629=DIRECTION('ref_axis',(0.707106781186547,-0.707106781186547,0.));
#630=DIRECTION('',(0.,0.,-1.));
#631=DIRECTION('center_axis',(0.,0.,1.));
#632=DIRECTION('ref_axis',(0.707106781186547,-0.707106781186547,0.));
#633=DIRECTION('',(0.,0.,1.));
#634=DIRECTION('center_axis',(1.,0.,0.));
#635=DIRECTION('ref_axis',(0.,1.,0.));
#636=DIRECTION('',(0.,1.,0.));
#637=DIRECTION('',(0.,0.,-1.));
#638=DIRECTION('center_axis',(0.,0.,1.));
#639=DIRECTION('ref_axis',(0.707106781186547,0.707106781186547,0.));
#640=DIRECTION('center_axis',(0.,0.,1.));
#641=DIRECTION('ref_axis',(0.707106781186547,0.707106781186547,0.));
#642=DIRECTION('',(0.,0.,1.));
#643=DIRECTION('center_axis',(-1.,0.,0.));
#644=DIRECTION('ref_axis',(0.,-1.,0.));
#645=DIRECTION('',(0.,0.,1.));
#646=DIRECTION('',(0.,0.,1.));
#647=DIRECTION('center_axis',(0.,0.,1.));
#648=DIRECTION('ref_axis',(-1.,0.,0.));
#649=DIRECTION('',(0.,0.,-1.));
#650=DIRECTION('center_axis',(0.,0.,-1.));
#651=DIRECTION('ref_axis',(-1.,0.,0.));
#652=DIRECTION('center_axis',(0.,0.,1.));
#653=DIRECTION('ref_axis',(-1.,0.,0.));
#654=DIRECTION('',(0.,0.,-1.));
#655=DIRECTION('center_axis',(0.,0.,-1.));
#656=DIRECTION('ref_axis',(-1.,0.,0.));
#657=DIRECTION('center_axis',(0.,0.,1.));
#658=DIRECTION('ref_axis',(-1.,0.,0.));
#659=DIRECTION('',(0.,0.,-1.));
#660=DIRECTION('center_axis',(0.,0.,-1.));
#661=DIRECTION('ref_axis',(-1.,0.,0.));
#662=DIRECTION('center_axis',(0.,0.,1.));
#663=DIRECTION('ref_axis',(-1.,0.,0.));
#664=DIRECTION('',(0.,0.,-1.));
#665=DIRECTION('center_axis',(0.,0.,-1.));
#666=DIRECTION('ref_axis',(-1.,0.,0.));
#667=DIRECTION('center_axis',(0.,0.,1.));
#668=DIRECTION('ref_axis',(-1.,0.,0.));
#669=DIRECTION('',(0.,0.,-1.));
#670=DIRECTION('center_axis',(0.,0.,-1.));
#671=DIRECTION('ref_axis',(-1.,0.,0.));
#672=DIRECTION('center_axis',(1.,0.,0.));
#673=DIRECTION('ref_axis',(0.,1.,0.));
#674=DIRECTION('',(0.,1.,0.));
#675=DIRECTION('',(0.,0.,1.));
#676=DIRECTION('',(0.,0.,1.));
#677=DIRECTION('',(0.,0.,1.));
#678=DIRECTION('center_axis',(0.,1.,0.));
#679=DIRECTION('ref_axis',(-1.,0.,0.));
#680=DIRECTION('',(-1.,0.,0.));
#681=DIRECTION('',(0.,0.,1.));
#682=DIRECTION('center_axis',(-1.,0.,0.));
#683=DIRECTION('ref_axis',(0.,-1.,0.));
#684=DIRECTION('',(0.,-1.,0.));
#685=DIRECTION('center_axis',(-1.,0.,0.));
#686=DIRECTION('ref_axis',(0.,-1.,0.));
#687=DIRECTION('',(0.,-1.,0.));
#688=DIRECTION('',(0.,0.,1.));
#689=DIRECTION('center_axis',(0.,-1.,0.));
#690=DIRECTION('ref_axis',(1.,0.,0.));
#691=DIRECTION('',(1.,0.,0.));
#692=DIRECTION('',(0.999999999999999,-4.63591680270551E-8,0.));
#693=DIRECTION('',(0.,0.,1.));
#694=DIRECTION('center_axis',(-4.63591680270551E-8,-0.999999999999999,0.));
#695=DIRECTION('ref_axis',(0.999999999999999,-4.63591680270551E-8,0.));
#696=DIRECTION('',(0.999999999999999,-4.63591680270551E-8,0.));
#697=DIRECTION('center_axis',(0.,1.,0.));
#698=DIRECTION('ref_axis',(-1.,0.,0.));
#699=DIRECTION('',(-1.,0.,0.));
#700=DIRECTION('center_axis',(0.,-1.,0.));
#701=DIRECTION('ref_axis',(1.,0.,0.));
#702=DIRECTION('',(1.,0.,0.));
#703=DIRECTION('center_axis',(0.,0.,1.));
#704=DIRECTION('ref_axis',(-1.,0.,0.));
#705=CARTESIAN_POINT('',(0.,0.,0.));
#706=CARTESIAN_POINT('Origin',(18.5,22.,18.));
#707=CARTESIAN_POINT('',(13.5,22.,21.));
#708=CARTESIAN_POINT('',(18.5,27.,21.));
#709=CARTESIAN_POINT('Origin',(18.5,22.,21.));
#710=CARTESIAN_POINT('',(18.5,27.,18.));
#711=CARTESIAN_POINT('',(18.5,27.,18.));
#712=CARTESIAN_POINT('',(13.5,22.,18.));
#713=CARTESIAN_POINT('Origin',(18.5,22.,18.));
#714=CARTESIAN_POINT('',(13.5,22.,18.));
#715=CARTESIAN_POINT('Origin',(31.75,27.,18.));
#716=CARTESIAN_POINT('',(31.75,27.,21.));
#717=CARTESIAN_POINT('',(58.,27.,21.));
#718=CARTESIAN_POINT('',(31.75,27.,18.));
#719=CARTESIAN_POINT('',(31.75,27.,18.));
#720=CARTESIAN_POINT('',(58.,27.,18.));
#721=CARTESIAN_POINT('Origin',(29.,21.,21.));
#722=CARTESIAN_POINT('',(13.5,0.,21.));
#723=CARTESIAN_POINT('',(13.5,0.,21.));
#724=CARTESIAN_POINT('',(58.,0.,21.));
#725=CARTESIAN_POINT('',(43.5,0.,21.));
#726=CARTESIAN_POINT('',(58.,42.,21.));
#727=CARTESIAN_POINT('',(58.,31.5,21.));
#728=CARTESIAN_POINT('',(31.75,42.,21.));
#729=CARTESIAN_POINT('',(14.5,42.,21.));
#730=CARTESIAN_POINT('',(31.75,42.,21.));
#731=CARTESIAN_POINT('',(26.8,9.5,21.));
#732=CARTESIAN_POINT('Origin',(22.8,9.5,21.));
#733=CARTESIAN_POINT('Origin',(-5.,47.,18.));
#734=CARTESIAN_POINT('',(-10.,47.,23.));
#735=CARTESIAN_POINT('',(-5.,52.,23.));
#736=CARTESIAN_POINT('Origin',(-5.,47.,23.));
#737=CARTESIAN_POINT('',(-5.,52.,18.));
#738=CARTESIAN_POINT('',(-5.,52.,18.));
#739=CARTESIAN_POINT('',(-10.,47.,18.));
#740=CARTESIAN_POINT('Origin',(-5.,47.,18.));
#741=CARTESIAN_POINT('',(-10.,47.,18.));
#742=CARTESIAN_POINT('Origin',(29.,21.,23.));
#743=CARTESIAN_POINT('',(-10.,-5.,23.));
#744=CARTESIAN_POINT('',(-10.,-10.,23.));
#745=CARTESIAN_POINT('',(-5.,-10.,23.));
#746=CARTESIAN_POINT('Origin',(-5.,-5.,23.));
#747=CARTESIAN_POINT('',(63.,-10.,23.));
#748=CARTESIAN_POINT('',(68.,-10.,23.));
#749=CARTESIAN_POINT('',(68.,-5.,23.));
#750=CARTESIAN_POINT('Origin',(63.,-5.,23.));
#751=CARTESIAN_POINT('',(68.,47.,23.));
#752=CARTESIAN_POINT('',(68.,52.,23.));
#753=CARTESIAN_POINT('',(63.,52.,23.));
#754=CARTESIAN_POINT('Origin',(63.,47.,23.));
#755=CARTESIAN_POINT('',(-10.,52.,23.));
#756=CARTESIAN_POINT('',(0.,42.,23.));
#757=CARTESIAN_POINT('',(58.,42.,23.));
#758=CARTESIAN_POINT('',(0.,42.,23.));
#759=CARTESIAN_POINT('',(58.,0.,23.));
#760=CARTESIAN_POINT('',(58.,42.,23.));
#761=CARTESIAN_POINT('',(0.,0.,23.));
#762=CARTESIAN_POINT('',(58.,0.,23.));
#763=CARTESIAN_POINT('',(0.,0.,23.));
#764=CARTESIAN_POINT('',(-3.55,47.,23.));
#765=CARTESIAN_POINT('Origin',(-5.,47.,23.));
#766=CARTESIAN_POINT('',(-3.55,-5.,23.));
#767=CARTESIAN_POINT('Origin',(-5.,-5.,23.));
#768=CARTESIAN_POINT('',(64.45,47.,23.));
#769=CARTESIAN_POINT('Origin',(63.,47.,23.));
#770=CARTESIAN_POINT('',(64.45,-5.,23.));
#771=CARTESIAN_POINT('Origin',(63.,-5.,23.));
#772=CARTESIAN_POINT('Origin',(-10.,52.,18.));
#773=CARTESIAN_POINT('',(-10.,-5.,18.));
#774=CARTESIAN_POINT('',(-10.,52.,18.));
#775=CARTESIAN_POINT('',(-10.,-5.,18.));
#776=CARTESIAN_POINT('Origin',(-5.,-5.,18.));
#777=CARTESIAN_POINT('',(-5.,-10.,18.));
#778=CARTESIAN_POINT('Origin',(-5.,-5.,18.));
#779=CARTESIAN_POINT('',(-5.,-10.,18.));
#780=CARTESIAN_POINT('Origin',(63.,-5.,18.));
#781=CARTESIAN_POINT('',(63.,-10.,18.));
#782=CARTESIAN_POINT('',(63.,-10.,18.));
#783=CARTESIAN_POINT('',(68.,-5.,18.));
#784=CARTESIAN_POINT('Origin',(63.,-5.,18.));
#785=CARTESIAN_POINT('',(68.,-5.,18.));
#786=CARTESIAN_POINT('Origin',(68.,-10.,18.));
#787=CARTESIAN_POINT('',(68.,47.,18.));
#788=CARTESIAN_POINT('',(68.,-10.,18.));
#789=CARTESIAN_POINT('',(68.,47.,18.));
#790=CARTESIAN_POINT('Origin',(63.,47.,18.));
#791=CARTESIAN_POINT('',(63.,52.,18.));
#792=CARTESIAN_POINT('Origin',(63.,47.,18.));
#793=CARTESIAN_POINT('',(63.,52.,18.));
#794=CARTESIAN_POINT('Origin',(58.,42.,18.));
#795=CARTESIAN_POINT('',(58.,0.,18.));
#796=CARTESIAN_POINT('',(58.,42.,18.));
#797=CARTESIAN_POINT('Origin',(-5.,-5.,18.));
#798=CARTESIAN_POINT('',(-3.55,-5.,18.));
#799=CARTESIAN_POINT('',(-3.55,-5.,18.));
#800=CARTESIAN_POINT('Origin',(-5.,-5.,18.));
#801=CARTESIAN_POINT('Origin',(-5.,47.,18.));
#802=CARTESIAN_POINT('',(-3.55,47.,18.));
#803=CARTESIAN_POINT('',(-3.55,47.,18.));
#804=CARTESIAN_POINT('Origin',(-5.,47.,18.));
#805=CARTESIAN_POINT('Origin',(63.,47.,18.));
#806=CARTESIAN_POINT('',(64.45,47.,18.));
#807=CARTESIAN_POINT('',(64.45,47.,18.));
#808=CARTESIAN_POINT('Origin',(63.,47.,18.));
#809=CARTESIAN_POINT('Origin',(22.8,9.5,18.));
#810=CARTESIAN_POINT('',(26.8,9.5,18.));
#811=CARTESIAN_POINT('',(26.8,9.5,18.));
#812=CARTESIAN_POINT('Origin',(22.8,9.5,18.));
#813=CARTESIAN_POINT('Origin',(63.,-5.,18.));
#814=CARTESIAN_POINT('',(64.45,-5.,18.));
#815=CARTESIAN_POINT('',(64.45,-5.,18.));
#816=CARTESIAN_POINT('Origin',(63.,-5.,18.));
#817=CARTESIAN_POINT('Origin',(0.,0.,18.));
#818=CARTESIAN_POINT('',(0.,0.,18.));
#819=CARTESIAN_POINT('',(0.,42.0000006258488,18.));
#820=CARTESIAN_POINT('',(0.,42.0000006258488,18.));
#821=CARTESIAN_POINT('',(0.,42.0000006258488,21.));
#822=CARTESIAN_POINT('',(0.,42.0000006258488,18.));
#823=CARTESIAN_POINT('',(0.,42.,18.));
#824=CARTESIAN_POINT('',(0.,0.,18.));
#825=CARTESIAN_POINT('Origin',(13.5,0.,18.));
#826=CARTESIAN_POINT('',(13.5,0.,18.));
#827=CARTESIAN_POINT('',(0.,0.,18.));
#828=CARTESIAN_POINT('',(13.5,0.,18.));
#829=CARTESIAN_POINT('Origin',(13.5,27.,18.));
#830=CARTESIAN_POINT('',(13.5,0.,18.));
#831=CARTESIAN_POINT('Origin',(31.75,42.,18.));
#832=CARTESIAN_POINT('',(31.75,42.,18.));
#833=CARTESIAN_POINT('',(31.75,42.,18.));
#834=CARTESIAN_POINT('',(31.75,42.,18.));
#835=CARTESIAN_POINT('Origin',(13.5,42.,18.));
#836=CARTESIAN_POINT('',(13.5,42.,18.));
#837=CARTESIAN_POINT('',(13.5,42.,18.));
#838=CARTESIAN_POINT('',(13.5,42.,21.));
#839=CARTESIAN_POINT('',(13.5,42.,21.));
#840=CARTESIAN_POINT('',(13.5,42.,18.));
#841=CARTESIAN_POINT('Origin',(0.,42.0000006258488,18.));
#842=CARTESIAN_POINT('',(13.5,42.,18.));
#843=CARTESIAN_POINT('Origin',(68.,52.,18.));
#844=CARTESIAN_POINT('',(68.,52.,18.));
#845=CARTESIAN_POINT('Origin',(-10.,-10.,18.));
#846=CARTESIAN_POINT('',(-10.,-10.,18.));
#847=CARTESIAN_POINT('Origin',(29.,21.,18.));
#848=UNCERTAINTY_MEASURE_WITH_UNIT(LENGTH_MEASURE(0.01),#852,
'DISTANCE_ACCURACY_VALUE',
'Maximum model space distance between geometric entities at asserted c
onnectivities');
#849=UNCERTAINTY_MEASURE_WITH_UNIT(LENGTH_MEASURE(0.01),#852,
'DISTANCE_ACCURACY_VALUE',
'Maximum model space distance between geometric entities at asserted c
onnectivities');
#850=(
GEOMETRIC_REPRESENTATION_CONTEXT(3)
GLOBAL_UNCERTAINTY_ASSIGNED_CONTEXT((#848))
GLOBAL_UNIT_ASSIGNED_CONTEXT((#852,#853,#854))
REPRESENTATION_CONTEXT('','3D')
);
#851=(
GEOMETRIC_REPRESENTATION_CONTEXT(3)
GLOBAL_UNCERTAINTY_ASSIGNED_CONTEXT((#849))
GLOBAL_UNIT_ASSIGNED_CONTEXT((#852,#853,#854))
REPRESENTATION_CONTEXT('','3D')
);
#852=(
LENGTH_UNIT()
NAMED_UNIT(*)
SI_UNIT(.MILLI.,.METRE.)
);
#853=(
NAMED_UNIT(*)
PLANE_ANGLE_UNIT()
SI_UNIT($,.RADIAN.)
);
#854=(
NAMED_UNIT(*)
SI_UNIT($,.STERADIAN.)
SOLID_ANGLE_UNIT()
);
#855=SHAPE_DEFINITION_REPRESENTATION(#856,#857);
#856=PRODUCT_DEFINITION_SHAPE('',$,#859);
#857=SHAPE_REPRESENTATION('',(#517),#850);
#858=PRODUCT_DEFINITION_CONTEXT('part definition',#863,'design');
#859=PRODUCT_DEFINITION('yams_real','yams_real v21',#860,#858);
#860=PRODUCT_DEFINITION_FORMATION('',$,#865);
#861=PRODUCT_RELATED_PRODUCT_CATEGORY('yams_real v21','yams_real v21',(#865));
#862=APPLICATION_PROTOCOL_DEFINITION('international standard',
'automotive_design',2009,#863);
#863=APPLICATION_CONTEXT(
'Core Data for Automotive Mechanical Design Process');
#864=PRODUCT_CONTEXT('part definition',#863,'mechanical');
#865=PRODUCT('yams_real','yams_real v21',$,(#864));
#866=PRESENTATION_STYLE_ASSIGNMENT((#867));
#867=SURFACE_STYLE_USAGE(.BOTH.,#868);
#868=SURFACE_SIDE_STYLE('',(#869));
#869=SURFACE_STYLE_FILL_AREA(#870);
#870=FILL_AREA_STYLE('Steel - Satin',(#871));
#871=FILL_AREA_STYLE_COLOUR('Steel - Satin',#872);
#872=COLOUR_RGB('Steel - Satin',0.627450980392157,0.627450980392157,0.627450980392157);
ENDSEC;
END-ISO-10303-21;
